{
  "accessors": [
    {
      "bufferView": 2,
      "componentType": 5126,
      "count": 6748,
      "max": [
        3.1278798580169678,
        137.71876525878906,
        174.23764038085938
      ],
      "min": [
        -90.8427734375,
        1.2716830968856812,
        -217.87478637695313
      ],
      "type": "VEC3"
    },
    {
      "bufferView": 2,
      "byteOffset": 80976,
      "componentType": 5126,
      "count": 6748,
      "max": [
        1.0,
        1.0,
        1.0
      ],
      "min": [
        -1.0,
        -1.0,
        -1.0
      ],
      "type": "VEC3"
    },
    {
      "bufferView": 0,
      "componentType": 5125,
      "count": 24774,
      "type": "SCALAR"
    },
    {
      "bufferView": 2,
      "byteOffset": 161952,
      "componentType": 5126,
      "count": 5190,
      "max": [
        -9.304429054260254,
        75.70315551757813,
        130.53070068359375
      ],
      "min": [
        -78.31160736083984,
        36.547874450683594,
        65.89739990234375
      ],
      "type": "VEC3"
    },
    {
      "bufferView": 2,
      "byteOffset": 224232,
      "componentType": 5126,
      "count": 5190,
      "max": [
        1.0,
        0.9999998807907104,
        0.9990237951278687
      ],
      "min": [
        -1.0,
        -0.9998236298561096,
        -0.996964156627655
      ],
      "type": "VEC3"
    },
    {
      "bufferView": 1,
      "componentType": 5126,
      "count": 5190,
      "max": [
        1.0,
        1.0
      ],
      "min": [
        0.0,
        0.0
      ],
      "type": "VEC2"
    },
    {
      "bufferView": 0,
      "byteOffset": 99096,
      "componentType": 5125,
      "count": 18864,
      "type": "SCALAR"
    },
    {
      "bufferView": 2,
      "byteOffset": 286512,
      "componentType": 5126,
      "count": 35181,
      "max": [
        13.253166198730469,
        135.9069366455078,
        174.48818969726563
      ],
      "min": [
        -99.6604995727539,
        3.6986160278320313,
        -220.29302978515625
      ],
      "type": "VEC3"
    },
    {
      "bufferView": 2,
      "byteOffset": 708684,
      "componentType": 5126,
      "count": 35181,
      "max": [
        1.0,
        1.0,
        1.0
      ],
      "min": [
        -1.0,
        -1.0,
        -1.0
      ],
      "type": "VEC3"
    },
    {
      "bufferView": 1,
      "byteOffset": 41520,
      "componentType": 5126,
      "count": 35181,
      "max": [
        2.17626690864563,
        1.0
      ],
      "min": [
        -0.010164001025259495,
        -0.6681980490684509
      ],
      "type": "VEC2"
    },
    {
      "bufferView": 0,
      "byteOffset": 174552,
      "componentType": 5125,
      "count": 158838,
      "type": "SCALAR"
    },
    {
      "bufferView": 2,
      "byteOffset": 1130856,
      "componentType": 5126,
      "count": 2158,
      "max": [
        -3.386353015899658,
        85.20477294921875,
        174.00912475585938
      ],
      "min": [
        -84.32353210449219,
        27.245256423950195,
        72.8187484741211
      ],
      "type": "VEC3"
    },
    {
      "bufferView": 2,
      "byteOffset": 1156752,
      "componentType": 5126,
      "count": 2158,
      "max": [
        0.9999839067459106,
        0.9924256801605225,
        0.956804096698761
      ],
      "min": [
        -0.9999839663505554,
        -0.9924256205558777,
        -0.9568167924880981
      ],
      "type": "VEC3"
    },
    {
      "bufferView": 1,
      "byteOffset": 322968,
      "componentType": 5126,
      "count": 2158,
      "max": [
        1.010650873184204,
        1.1132351160049438
      ],
      "min": [
        -0.0011789998970925808,
        0.0
      ],
      "type": "VEC2"
    },
    {
      "bufferView": 0,
      "byteOffset": 809904,
      "componentType": 5125,
      "count": 9636,
      "type": "SCALAR"
    },
    {
      "bufferView": 2,
      "byteOffset": 1182648,
      "componentType": 5126,
      "count": 4942,
      "max": [
        149.85592651367188,
        119.49079895019531,
        220.29296875
      ],
      "min": [
        -149.85586547851563,
        92.250732421875,
        -121.89103698730469
      ],
      "type": "VEC3"
    },
    {
      "bufferView": 2,
      "byteOffset": 1241952,
      "componentType": 5126,
      "count": 4942,
      "max": [
        1.0,
        1.0,
        1.0
      ],
      "min": [
        -1.0,
        -1.0,
        -1.0
      ],
      "type": "VEC3"
    },
    {
      "bufferView": 1,
      "byteOffset": 340232,
      "componentType": 5126,
      "count": 4942,
      "max": [
        1.083333134651184,
        1.0
      ],
      "min": [
        0.0,
        0.0
      ],
      "type": "VEC2"
    },
    {
      "bufferView": 0,
      "byteOffset": 848448,
      "componentType": 5125,
      "count": 12723,
      "type": "SCALAR"
    },
    {
      "bufferView": 2,
      "byteOffset": 1301256,
      "componentType": 5126,
      "count": 2102,
      "max": [
        -39.177005767822266,
        92.46367645263672,
        -163.2003173828125
      ],
      "min": [
        -46.155845642089844,
        53.05986785888672,
        -202.71060180664063
      ],
      "type": "VEC3"
    },
    {
      "bufferView": 2,
      "byteOffset": 1326480,
      "componentType": 5126,
      "count": 2102,
      "max": [
        0.9999691843986511,
        0.9997168779373169,
        1.0
      ],
      "min": [
        -1.0,
        -0.9997442364692688,
        -1.0
      ],
      "type": "VEC3"
    },
    {
      "bufferView": 1,
      "byteOffset": 379768,
      "componentType": 5126,
      "count": 2102,
      "max": [
        0.9166669845581055,
        2.8970179557800293
      ],
      "min": [
        -0.37872999906539917,
        -3.0633928775787354
      ],
      "type": "VEC2"
    },
    {
      "bufferView": 0,
      "byteOffset": 899340,
      "componentType": 5125,
      "count": 6096,
      "type": "SCALAR"
    }
  ],
  "asset": {
    "extras": {
      "author": "surveytown (https://sketchfab.com/surveytown)",
      "license": "CC-BY-4.0 (http://creativecommons.org/licenses/by/4.0/)",
      "source": "https://sketchfab.com/3d-models/helicopter-5052016c9a3b4f3c82c206974aba3fbf",
      "title": "Helicopter"
    },
    "generator": "Sketchfab-12.66.0",
    "version": "2.0"
  },
  "bufferViews": [
    {
      "buffer": 0,
      "byteLength": 923724,
      "name": "floatBufferViews",
      "target": 34963
    },
    {
      "buffer": 0,
      "byteLength": 396584,
      "byteOffset": 923724,
      "byteStride": 8,
      "name": "floatBufferViews",
      "target": 34962
    },
    {
      "buffer": 0,
      "byteLength": 1351704,
      "byteOffset": 1320308,
      "byteStride": 12,
      "name": "floatBufferViews",
      "target": 34962
    }
  ],
  "buffers": [
    {
      "byteLength": 2672012,
      "uri": "scene.bin"
    }
  ],
  "images": [
    {
      "uri": "textures/interior_baseColor.jpeg"
    },
    {
      "uri": "textures/body_baseColor.jpeg"
    },
    {
      "uri": "textures/glass_baseColor.png"
    },
    {
      "uri": "textures/elise_baseColor.jpeg"
    },
    {
      "uri": "textures/rotor_baseColor.jpeg"
    }
  ],
  "materials": [
    {
      "doubleSided": true,
      "name": "black",
      "pbrMetallicRoughness": {
        "roughnessFactor": 0.2
      }
    },
    {
      "doubleSided": true,
      "name": "interior",
      "pbrMetallicRoughness": {
        "baseColorTexture": {
          "index": 0
        },
        "metallicFactor": 0.0
      }
    },
    {
      "doubleSided": true,
      "name": "body",
      "pbrMetallicRoughness": {
        "baseColorTexture": {
          "index": 1
        },
        "metallicFactor": 0.0,
        "roughnessFactor": 0.0
      }
    },
    {
      "alphaMode": "BLEND",
      "doubleSided": true,
      "name": "glass",
      "pbrMetallicRoughness": {
        "baseColorFactor": [
          1.0,
          1.0,
          1.0,
          0.5
        ],
        "baseColorTexture": {
          "index": 2
        },
        "metallicFactor": 0.5,
        "roughnessFactor": 0.0
      }
    },
    {
      "doubleSided": true,
      "name": "elise",
      "pbrMetallicRoughness": {
        "baseColorTexture": {
          "index": 3
        },
        "roughnessFactor": 0.4
      }
    },
    {
      "doubleSided": true,
      "name": "rotor",
      "pbrMetallicRoughness": {
        "baseColorTexture": {
          "index": 4
        },
        "roughnessFactor": 0.2
      }
    }
  ],
  "meshes": [
    {
      "name": "Object_0",
      "primitives": [
        {
          "attributes": {
            "NORMAL": 1,
            "POSITION": 0
          },
          "indices": 2,
          "material": 0,
          "mode": 4
        }
      ]
    },
    {
      "name": "Object_1",
      "primitives": [
        {
          "attributes": {
            "NORMAL": 4,
            "POSITION": 3,
            "TEXCOORD_0": 5
          },
          "indices": 6,
          "material": 1,
          "mode": 4
        }
      ]
    },
    {
      "name": "Object_2",
      "primitives": [
        {
          "attributes": {
            "NORMAL": 8,
            "POSITION": 7,
            "TEXCOORD_0": 9
          },
          "indices": 10,
          "material": 2,
          "mode": 4
        }
      ]
    },
    {
      "name": "Object_3",
      "primitives": [
        {
          "attributes": {
            "NORMAL": 12,
            "POSITION": 11,
            "TEXCOORD_0": 13
          },
          "indices": 14,
          "material": 3,
          "mode": 4
        }
      ]
    },
    {
      "name": "Object_4",
      "primitives": [
        {
          "attributes": {
            "NORMAL": 16,
            "POSITION": 15,
            "TEXCOORD_0": 17
          },
          "indices": 18,
          "material": 4,
          "mode": 4
        }
      ]
    },
    {
      "name": "Object_5",
      "primitives": [
        {
          "attributes": {
            "NORMAL": 20,
            "POSITION": 19,
            "TEXCOORD_0": 21
          },
          "indices": 22,
          "material": 5,
          "mode": 4
        }
      ]
    }
  ],
  "nodes": [
    {
      "children": [
        1
      ],
      "matrix": [
        -2.220446049250313e-16,
        6.123234262925839e-17,
        -1.0,
        0.0,
        -1.0,
        -1.6081226229577296e-16,
        2.2204460492503128e-16,
        0.0,
        -1.6081226229577292e-16,
        1.0,
        6.123234262925839e-17,
        0.0,
        0.0006866455078125,
        -1.4210675144217186e-14,
        -0.0008087158203125,
        1.0
      ],
      "name": "Sketchfab_model"
    },
    {
      "children": [
        2
      ],
      "name": "root"
    },
    {
      "children": [
        3
      ],
      "matrix": [
        1.0,
        0.0,
        0.0,
        0.0,
        0.0,
        2.220446049250313e-16,
        1.0,
        0.0,
        0.0,
        -1.0,
        2.220446049250313e-16,
        0.0,
        0.0,
        0.0,
        0.0,
        1.0
      ],
      "name": "GLTF_SceneRootNode"
    },
    {
      "children": [
        4
      ],
      "matrix": [
        1.0,
        0.0,
        -0.0,
        0.0,
        -0.0,
        0.0,
        -1.0,
        0.0,
        0.0,
        1.0,
        0.0,
        0.0,
        0.0,
        0.0,
        0.0,
        1.0
      ],
      "name": "RootNode (gltf orientation matrix)_0"
    },
    {
      "children": [
        5
      ],
      "name": "RootNode (model correction matrix)_1"
    },
    {
      "children": [
        6
      ],
      "matrix": [
        1.0,
        0.0,
        0.0,
        0.0,
        0.0,
        0.0,
        1.0,
        0.0,
        0.0,
        -1.0,
        0.0,
        0.0,
        0.0,
        0.0,
        0.0,
        1.0
      ],
      "name": "5c4b48e0350f4f45a5efa407b76671e9.fbx_2"
    },
    {
      "children": [
        7
      ],
      "name": "RootNode_3"
    },
    {
      "children": [
        8
      ],
      "name": "helicopter_4"
    },
    {
      "children": [
        9
      ],
      "name": "helicopter.Shape_5"
    },
    {
      "children": [
        10,
        12,
        14,
        16,
        18,
        20
      ],
      "name": "Geode_6"
    },
    {
      "children": [
        11
      ],
      "name": "helicopter.Shape_black_0_7"
    },
    {
      "mesh": 0,
      "name": "Object_11"
    },
    {
      "children": [
        13
      ],
      "name": "helicopter.Shape_interior_0_8"
    },
    {
      "mesh": 1,
      "name": "Object_13"
    },
    {
      "children": [
        15
      ],
      "name": "helicopter.Shape_body_0_9"
    },
    {
      "mesh": 2,
      "name": "Object_15"
    },
    {
      "children": [
        17
      ],
      "name": "helicopter.Shape_glass_0_10"
    },
    {
      "mesh": 3,
      "name": "Object_17"
    },
    {
      "children": [
        19
      ],
      "name": "helicopter.Shape_elise_0_11"
    },
    {
      "mesh": 4,
      "name": "Object_19"
    },
    {
      "children": [
        21
      ],
      "name": "helicopter.Shape_rotor_0_12"
    },
    {
      "mesh": 5,
      "name": "Object_21"
    }
  ],
  "samplers": [
    {
      "magFilter": 9729,
      "minFilter": 9987,
      "wrapS": 10497,
      "wrapT": 10497
    }
  ],
  "scene": 0,
  "scenes": [
    {
      "name": "Sketchfab_Scene",
      "nodes": [
        0
      ]
    }
  ],
  "textures": [
    {
      "sampler": 0,
      "source": 0
    },
    {
      "sampler": 0,
      "source": 1
    },
    {
      "sampler": 0,
      "source": 2
    },
    {
      "sampler": 0,
      "source": 3
    },
    {
      "sampler": 0,
      "source": 4
    }
  ]
}
